<?xml version="1.0" encoding="UTF-8"?>
<svg xmlns="http://www.w3.org/2000/svg" width="170" height="61.603" viewBox="0 0 170 61.603">
  <g id="Group_327" data-name="Group 327" transform="translate(-296.439 -1120.034)">
    <g id="Group_323" data-name="Group 323">
      <g id="Group_281" data-name="Group 281">
        <circle id="Ellipse_31" data-name="Ellipse 31" cx="30.505" cy="30.505" r="30.505" transform="translate(296.67 1120.341)" fill="#ffb719"></circle>
      </g>
      <circle id="Ellipse_32" data-name="Ellipse 32" cx="27.874" cy="27.874" r="27.874" transform="translate(299.3 1122.972)" fill="#070707"></circle>
      <g id="Group_282" data-name="Group 282">
        <path id="Path_163" data-name="Path 163" d="M341.185,1152.907l-7.683.558-.385-5.681,1.545-4.552,4.427,6.305Z" fill="#ac8400"></path>
      </g>
      <g id="Group_283" data-name="Group 283">
        <path id="Path_164" data-name="Path 164" d="M306.827,1169.953a.435.435,0,0,1,.211.216C306.814,1170.247,306.816,1170.1,306.827,1169.953Z" fill="#ffb719"></path>
      </g>
      <g id="Group_284" data-name="Group 284">
        <path id="Path_165" data-name="Path 165" d="M306.725,1170.257c-.018.007-.041.024-.053.018s-.016-.033-.023-.051c.018-.007.041-.024.054-.019S306.718,1170.239,306.725,1170.257Z" fill="#ffb719"></path>
      </g>
      <g id="Group_285" data-name="Group 285">
        <path id="Path_166" data-name="Path 166" d="M328.379,1149.077q.121-2,.243-4a1,1,0,0,1,.174-.488q2.172-3.36,4.332-6.73a.566.566,0,0,1,.559-.306c1.149.025,2.3.022,3.449.02a1.467,1.467,0,0,1,.737.187q1.92,1.066,3.852,2.111a1.009,1.009,0,0,1,.427.443c.31.591.635,1.175.949,1.764a.865.865,0,0,0,.336.343q2.884,1.751,5.76,3.517c.139.085.438.166.365.294a.734.734,0,0,1-.642.467c-.8-.013-1.6-.006-2.394-.006s-1.593,0-2.421.067c.421.274.839.553,1.263.821q.891.564,1.79,1.113c.133.082.229.163.173.333a.289.289,0,0,0-.233-.025c-1.277.281-2.556.554-3.832.837a.761.761,0,0,1-.543-.053c-1.282-.655-2.533-1.367-3.776-2.093a2.187,2.187,0,0,1-.664-.428c.114-.107.237-.063.347-.064.787-.005,1.573,0,2.36,0,.892,0,.947-.079.659-.955a.541.541,0,0,0-.031-.064,1.043,1.043,0,0,0,0-.209c-.167-.848-.327-1.7-.512-2.543a15.684,15.684,0,0,0-.455-2.006,3.739,3.739,0,0,0-.048-.414c-.031-.389-.243-.5-.585-.429a8.879,8.879,0,0,1-.974.081c-1.075.107-2.151.211-3.223.35-.269.035-.579-.048-.81.179l-.352-.01a.366.366,0,0,0-.3-.029c-.052.024-.176.035-.058.117a1.734,1.734,0,0,0,.355.144c1.373.528,2.722,1.115,4.12,1.576a1.212,1.212,0,0,1,.707.4c.625.861,1.276,1.7,1.917,2.552a1.834,1.834,0,0,1-.775-.2c-.975-.326-1.958-.632-2.925-.983-.868-.314-1.736-.626-2.615-.908a.6.6,0,0,0-.666.162c-.445.43-.916.834-1.384,1.241-1.021.889-2.037,1.785-3.075,2.655a12.174,12.174,0,0,1-1.6,1.3l-.005-.018Z" fill="#ffb719"></path>
      </g>
      <g id="Group_286" data-name="Group 286">
        <path id="Path_167" data-name="Path 167" d="M341.618,1146.176a.541.541,0,0,1,.031.064c.288.876.233.955-.659.955-.787,0-1.573,0-2.36,0-.11,0-.233-.043-.347.064a2.187,2.187,0,0,0,.664.428c1.243.726,2.494,1.438,3.776,2.093a.761.761,0,0,0,.543.053c1.276-.283,2.555-.556,3.832-.837a.289.289,0,0,1,.233.025l0,.076c-.185.139-.2.4-.411.531-.431.277-.843.582-1.262.876q-1.461,1.023-2.922,2.046c-.1.07-.245.106-.25.268-.433.028-.866.052-1.3.085a.346.346,0,0,1-.343-.176c-1.94-2.692-3.789-5.449-5.683-8.174-.145-.209-.264-.435-.432-.715-.071.674-.138,1.278-.2,1.882-.17,1.751-.333,3.5-.505,5.254-.078.788-.173,1.574-.252,2.362-.022.22-.081.282-.271.125q-2.571-2.13-5.145-4.255a12.174,12.174,0,0,0,1.6-1.3c1.038-.87,2.054-1.766,3.075-2.655.468-.407.939-.811,1.384-1.241a.6.6,0,0,1,.666-.162c.879.282,1.747.594,2.615.908.967.351,1.95.657,2.925.983a1.834,1.834,0,0,0,.775.2Z" fill="#e0a525"></path>
      </g>
      <g id="Group_287" data-name="Group 287">
        <path id="Path_168" data-name="Path 168" d="M339.236,1168.389a13.287,13.287,0,0,1-1.57.77q-3.384,1.584-6.777,3.152c-.105.049-.215.086-.376.15l2.779-6.946a1.481,1.481,0,0,1,.162.057c1.514.734,3.031,1.459,4.536,2.209A6.619,6.619,0,0,1,339.236,1168.389Z" fill="#e0a525"></path>
      </g>
      <g id="Group_288" data-name="Group 288">
        <path id="Path_169" data-name="Path 169" d="M339.236,1168.389a6.619,6.619,0,0,0-1.246-.608c-1.505-.75-3.022-1.475-4.536-2.209a1.481,1.481,0,0,0-.162-.057q-1.492-3.771-2.983-7.541c-.043-.108-.07-.222-.1-.334l.057-.052q3.89,4.7,7.908,9.292.565.649,1.119,1.31C339.35,1168.262,339.5,1168.389,339.236,1168.389Z" fill="#ffb719"></path>
      </g>
      <g id="Group_289" data-name="Group 289">
        <path id="Path_170" data-name="Path 170" d="M341.639,1166.016c-.123.054-.126.056-.226-.058-.719-.818-1.445-1.631-2.155-2.458-1.427-1.663-2.876-3.307-4.369-4.912a6.708,6.708,0,0,1-.776-.966c.175.079.355.149.525.239,2.949,1.582,5.928,3.106,8.906,4.633.26.133.512.282.768.423a.226.226,0,0,1-.2.055c-.734-.057-1.473-.08-2.2-.185-.906-.131-.981-.075-.788.793C341.308,1164.39,341.469,1165.2,341.639,1166.016Z" fill="#ffb719"></path>
      </g>
      <g id="Group_290" data-name="Group 290">
        <path id="Path_171" data-name="Path 171" d="M326.535,1137.2c-.226-.034-.12.122-.094.192.127.327.263.651.4.973.581,1.332,1.236,2.63,1.764,3.985.02.051.039.1.084.224-1.042-.665-2.01-1.311-3.009-1.905a.9.9,0,0,1-.477-.9c0-.774-.052-1.548-.1-2.321a.722.722,0,0,1,.207-.624c.473-.472.919-.972,1.368-1.468a.252.252,0,0,1,.385-.05c1.444.94,2.9,1.862,4.338,2.813.3.2-.083.321-.132.484a.61.61,0,0,0-.366-.234c-.8-.2-1.59-.451-2.392-.644A14.5,14.5,0,0,0,326.535,1137.2Z" fill="#ffb719"></path>
      </g>
      <g id="Group_291" data-name="Group 291">
        <path id="Path_172" data-name="Path 172" d="M346.426,1154.881c.241.288.2.524-.053.813-.735.832-1.435,1.694-2.146,2.541l-5.176-4.069,2.935-.174c-.071.091-.033.156.026.245.563.844,1.172,1.655,1.779,2.467.507.678.485.661,1.041-.021A17.373,17.373,0,0,1,346.426,1154.881Z" fill="#e0a525"></path>
      </g>
      <g id="Group_292" data-name="Group 292">
        <path id="Path_173" data-name="Path 173" d="M346.426,1154.881a17.373,17.373,0,0,0-1.594,1.8c-.556.682-.534.7-1.041.021-.607-.812-1.216-1.623-1.779-2.467-.059-.089-.1-.154-.026-.245,1.2-.08,2.408-.157,3.612-.244a.328.328,0,0,1,.375.225C346.111,1154.282,346.274,1154.579,346.426,1154.881Z" fill="#ffb719"></path>
      </g>
      <g id="Group_293" data-name="Group 293">
        <path id="Path_174" data-name="Path 174" d="M342.483,1152.822c.005-.162.15-.2.25-.268q1.459-1.026,2.922-2.046c.419-.294.831-.6,1.262-.876.209-.134.226-.392.411-.531,0,.538.011,1.075.014,1.613a.75.75,0,0,1-.249.578q-.688.648-1.354,1.32a.33.33,0,0,1-.247.1Q343.988,1152.769,342.483,1152.822Z" fill="#ffb719"></path>
      </g>
      <g id="Group_294" data-name="Group 294">
        <path id="Path_175" data-name="Path 175" d="M341.639,1166.016c-.17-.812-.331-1.626-.511-2.436-.193-.868-.118-.924.788-.793.727.1,1.466.128,2.2.185a.226.226,0,0,0,.2-.055c.268.037.271.138.093.317Q343.018,1164.622,341.639,1166.016Z" fill="#e0a525"></path>
      </g>
      <g id="Group_295" data-name="Group 295">
        <path id="Path_176" data-name="Path 176" d="M326.535,1137.2a14.5,14.5,0,0,1,1.982.52c.8.193,1.592.44,2.392.644a.61.61,0,0,1,.366.234,12.822,12.822,0,0,1-.769,1.081c-.069.1-.13.106-.227.041Q328.409,1138.457,326.535,1137.2Z" fill="#ffb719"></path>
      </g>
      <g id="Group_296" data-name="Group 296">
        <path id="Path_177" data-name="Path 177" d="M317.526,1143.874c.027-.064.073-.07.13-.042l-.07.095Z" fill="#ffb719"></path>
      </g>
      <g id="Group_297" data-name="Group 297">
        <path id="Path_178" data-name="Path 178" d="M330.2,1157.64a.089.089,0,0,1-.032-.137l.089.085Z" fill="#ffb719"></path>
      </g>
      <g id="Group_298" data-name="Group 298">
        <path id="Path_179" data-name="Path 179" d="M328.379,1149.077l-.027.115A.075.075,0,0,1,328.379,1149.077Z" fill="#ffb719"></path>
      </g>
      <g id="Group_299" data-name="Group 299">
        <path id="Path_180" data-name="Path 180" d="M323.689,1172.419l-.017,0,.011-.017Z" fill="#ffb719"></path>
      </g>
      <g id="Group_300" data-name="Group 300">
        <path id="Path_181" data-name="Path 181" d="M340.65,1141.418l-5.64-.233c.231-.227.541-.144.81-.179,1.072-.139,2.148-.243,3.223-.35a8.879,8.879,0,0,0,.974-.081c.342-.072.554.04.585.429A3.739,3.739,0,0,1,340.65,1141.418Z" fill="#ffb719"></path>
      </g>
      <g id="Group_301" data-name="Group 301">
        <path id="Path_182" data-name="Path 182" d="M334.658,1141.175a.391.391,0,0,1-.3-.029A.366.366,0,0,1,334.658,1141.175Z" fill="#ffb719"></path>
      </g>
      <g id="Group_302" data-name="Group 302">
        <path id="Path_183" data-name="Path 183" d="M332.456,1134.5l-5.594-6.608-7.367,1.313,1.781.979,11.092,4.324Z" fill="#ffb719"></path>
      </g>
      <g id="Group_303" data-name="Group 303">
        <path id="Path_184" data-name="Path 184" d="M332.368,1134.505l-11.092-4.324,8.311,4.567Z" fill="#e0a525"></path>
      </g>
      <g id="Group_304" data-name="Group 304">
        <path id="Path_185" data-name="Path 185" d="M337.53,1136.543l-1.586-6.525-5.2-2Z" fill="#ffb719"></path>
      </g>
      <g id="Group_305" data-name="Group 305">
        <path id="Path_186" data-name="Path 186" d="M326.563,1177.189c-.483-.012-.97-.038-1.45-.076l.14-1.756c.448.036.9.06,1.355.071Zm1.452,0-.051-1.761c.45-.013.906-.038,1.354-.076l.147,1.756C328.984,1177.146,328.5,1177.173,328.015,1177.187Zm-4.346-.23c-.479-.064-.961-.143-1.434-.234l.333-1.73c.441.085.891.158,1.338.219Zm7.239-.011-.243-1.745c.446-.062.9-.138,1.337-.224l.339,1.729C331.868,1176.8,331.386,1176.879,330.908,1176.946Zm-10.091-.537c-.469-.118-.94-.25-1.4-.393l.523-1.682c.429.133.868.256,1.3.366Zm12.941-.022-.434-1.707c.437-.111.875-.236,1.3-.37l.528,1.68C334.7,1176.135,334.226,1176.268,333.758,1176.387Zm-15.719-.841c-.452-.168-.906-.352-1.349-.546l.706-1.614c.413.181.836.352,1.258.509Zm18.491-.029-.621-1.649c.421-.158.842-.33,1.253-.511l.71,1.612C337.432,1175.163,336.98,1175.347,336.53,1175.517Zm-21.157-1.136c-.43-.218-.861-.45-1.279-.692l.88-1.526c.39.225.792.442,1.194.645Zm23.81-.034-.8-1.57c.4-.2.8-.422,1.189-.647l.885,1.524C340.041,1173.9,339.612,1174.128,339.183,1174.347Zm-26.328-1.419c-.4-.263-.806-.541-1.2-.827l1.042-1.42c.363.266.739.526,1.115.772Zm28.837-.037-.966-1.473c.375-.246.75-.507,1.112-.774l1.045,1.418C342.5,1172.348,342.1,1172.627,341.692,1172.891Zm-31.18-1.682c-.372-.306-.741-.626-1.1-.953l1.192-1.3c.332.3.676.6,1.024.889Zm33.516-.041-1.122-1.358c.347-.287.69-.587,1.021-.892l1.194,1.3C344.767,1170.539,344.4,1170.861,344.028,1171.168Zm-35.655-1.923c-.337-.345-.668-.7-.986-1.067l1.327-1.16c.3.339.606.675.92,1Zm37.788-.046-1.263-1.227c.313-.324.622-.659.917-1l1.33,1.156C346.828,1168.493,346.5,1168.853,346.161,1169.2Zm-39.7-2.14c-.3-.379-.587-.772-.862-1.168l1.445-1.007c.257.369.528.736.8,1.09Zm41.606-.052-1.391-1.081c.277-.356.548-.724.8-1.094l1.448,1C348.654,1166.232,348.365,1166.626,348.068,1167.007Zm-43.265-2.329c-.254-.409-.5-.831-.729-1.254l1.547-.843c.215.395.444.789.68,1.171Zm44.921-.059-1.5-.923c.236-.384.464-.779.678-1.175l1.55.838C350.221,1163.783,349.977,1164.207,349.724,1164.619Zm-46.309-2.488c-.206-.435-.4-.881-.585-1.327l1.63-.667c.17.416.354.833.547,1.238Zm47.692-.07-1.593-.751c.192-.408.375-.827.544-1.244l1.633.662C351.51,1161.175,351.313,1161.623,351.107,1162.061Zm-48.79-2.617c-.157-.456-.3-.922-.436-1.386l1.694-.482c.123.433.26.868.407,1.293Zm49.883-.08-1.667-.57c.145-.425.281-.86.4-1.294l1.7.477C352.5,1158.441,352.356,1158.908,352.2,1159.364Zm-50.678-2.714c-.105-.47-.2-.949-.279-1.425l1.737-.292c.074.444.162.892.261,1.33Zm51.464-.083-1.72-.381c.1-.44.184-.887.257-1.331l1.738.286C353.183,1155.617,353.09,1156.1,352.986,1156.567Zm-51.944-2.781c-.053-.478-.094-.965-.122-1.447l1.759-.1c.026.45.064.9.114,1.351Zm52.415-.084-1.751-.19c.048-.446.085-.9.109-1.351l1.759.093C353.548,1152.736,353.509,1153.223,353.457,1153.7Zm-52.579-2.815v-.056c0-.483.013-.971.039-1.451l1.759.1c-.024.448-.036.9-.036,1.355v.053Zm50.972-.082c0-.451-.013-.907-.038-1.356l1.759-.1c.026.481.04.97.04,1.452Zm-49.063-2.681-1.751-.191c.052-.48.119-.964.2-1.439l1.738.287C302.9,1147.225,302.836,1147.677,302.787,1148.124Zm48.913-.026c-.05-.448-.112-.9-.186-1.343l1.738-.29c.079.475.146.959.2,1.439Z" fill="#ffb719"></path>
      </g>
      <g id="Group_306" data-name="Group 306">
        <path id="Path_187" data-name="Path 187" d="M327.245,1181.637c-.222,0-.447,0-.67-.007l.038-1.762c.454.01.912.009,1.362,0l.043,1.761C327.762,1181.633,327.5,1181.637,327.245,1181.637Zm-2.112-.072c-.478-.032-.962-.076-1.438-.131l.2-1.75c.449.052.9.093,1.356.124Zm4.327-.007-.125-1.757c.451-.032.907-.075,1.356-.128l.206,1.749C330.422,1181.479,329.938,1181.524,329.46,1181.558Zm-7.195-.322c-.473-.077-.951-.166-1.419-.265l.364-1.724c.442.094.892.178,1.338.25Zm10.062-.017-.289-1.738c.447-.074.9-.159,1.338-.254l.37,1.722C333.278,1181.05,332.8,1181.141,332.327,1181.219Zm-12.887-.58c-.464-.121-.931-.255-1.388-.4l.525-1.681c.431.134.871.26,1.308.375Zm15.71-.026-.451-1.7c.437-.116.876-.244,1.307-.38l.531,1.68C336.08,1180.355,335.613,1180.49,335.15,1180.613Zm-18.47-.836c-.451-.165-.9-.342-1.347-.528l.681-1.625c.418.175.845.343,1.27.5Zm21.224-.034-.61-1.653c.423-.156.848-.324,1.262-.5l.687,1.623C338.8,1179.4,338.352,1179.577,337.9,1179.743Zm-23.892-1.085c-.433-.207-.868-.427-1.291-.653l.832-1.553c.4.213.808.42,1.217.615Zm26.545-.038-.763-1.589c.407-.195.814-.4,1.211-.616l.836,1.551C341.42,1178.193,340.988,1178.413,340.557,1178.62Zm-29.094-1.328c-.411-.245-.823-.505-1.223-.77l.974-1.468c.377.25.765.494,1.153.726Zm31.631-.04-.907-1.51c.387-.233.773-.478,1.148-.728l.978,1.466C343.915,1176.745,343.505,1177.005,343.094,1177.252Zm-34.039-1.557c-.387-.283-.772-.58-1.145-.881l1.106-1.371c.352.284.715.564,1.08.831Zm36.439-.043-1.045-1.419c.364-.268.727-.548,1.077-.832l1.11,1.368C346.264,1175.071,345.88,1175.367,345.494,1175.652Zm-38.687-1.771c-.358-.318-.714-.649-1.057-.983l1.229-1.262c.324.316.66.628,1,.927Zm40.928-.047-1.172-1.315c.337-.3.672-.613,1-.929l1.232,1.259C348.447,1173.184,348.092,1173.516,347.735,1173.834Zm-43-1.967c-.327-.35-.65-.712-.961-1.077l1.342-1.142c.293.344.6.686.906,1.015Zm45.059-.052-1.289-1.2c.308-.331.612-.673.9-1.018l1.344,1.139C350.447,1171.1,350.125,1171.464,349.8,1171.815Zm-46.929-2.146c-.293-.379-.581-.769-.856-1.161l1.442-1.012c.259.369.53.738.807,1.095Zm48.8-.057-1.4-1.075c.276-.358.547-.727.806-1.1l1.445,1.008C352.245,1168.841,351.957,1169.233,351.665,1169.612Zm-50.453-2.3c-.257-.4-.507-.82-.744-1.235l1.53-.873c.224.392.46.784.7,1.165Zm52.107-.065-1.49-.94c.241-.382.477-.775.7-1.169l1.532.869C353.825,1166.42,353.575,1166.838,353.319,1167.243Zm-53.536-2.439c-.217-.426-.427-.863-.624-1.3l1.605-.726c.186.411.384.823.589,1.225Zm54.962-.076-1.572-.8c.2-.4.4-.818.587-1.23l1.608.72C355.172,1163.86,354.962,1164.3,354.745,1164.728Zm-56.148-2.55c-.177-.446-.345-.9-.5-1.355l1.667-.571c.146.427.3.857.471,1.277Zm57.331-.09-1.639-.644c.165-.421.323-.852.468-1.281l1.669.566C356.271,1161.184,356.1,1161.642,355.928,1162.088Zm-58.268-2.642c-.133-.46-.258-.93-.37-1.4l1.713-.411c.105.439.223.881.349,1.315Zm59.2-.1-1.693-.486c.124-.434.24-.877.344-1.317l1.715.406C357.112,1158.419,356.989,1158.889,356.857,1159.35Zm-59.871-2.711c-.09-.47-.169-.949-.237-1.425l1.744-.248c.064.448.139.9.224,1.342Zm60.536-.1-1.731-.324c.083-.443.156-.895.219-1.344l1.745.243C357.688,1155.591,357.61,1156.071,357.522,1156.54Zm-60.943-2.76c-.045-.476-.08-.96-.1-1.439l1.759-.085c.022.452.055.909.1,1.358Zm61.341-.1-1.754-.161c.041-.449.072-.906.093-1.359l1.76.08C358,1152.72,357.964,1153.2,357.92,1153.681Zm-61.481-2.784v-.064c0-.481.012-.967.034-1.445l1.759.082c-.02.45-.031.909-.031,1.361v.063Zm59.85-.1c0-.453-.012-.911-.033-1.362l1.759-.083c.023.477.035.963.035,1.443Zm-57.962-2.689-1.755-.163c.045-.477.1-.96.168-1.433l1.744.244C298.421,1147.206,298.368,1147.661,298.327,1148.111Zm57.833-.031c-.042-.45-.1-.9-.159-1.352l1.744-.247c.067.475.124.957.169,1.434Zm-57.455-2.664-1.731-.327c.088-.47.19-.946.3-1.412l1.713.408C298.884,1144.524,298.788,1144.972,298.7,1145.416Zm57.074-.031c-.084-.445-.18-.892-.285-1.331l1.713-.41c.111.466.213.941.3,1.412Zm-56.444-2.617-1.693-.488c.133-.46.278-.924.433-1.378l1.667.568C299.6,1141.9,299.46,1142.334,299.335,1142.768Zm55.811-.03c-.125-.433-.263-.87-.409-1.3l1.667-.569c.155.454.3.917.434,1.377Zm-54.934-2.549-1.639-.646c.177-.447.366-.9.563-1.333l1.606.722C300.557,1139.345,300.378,1139.768,300.212,1140.189Zm54.055-.026c-.166-.42-.344-.841-.529-1.251l1.606-.724c.2.436.385.882.561,1.327Zm-52.936-2.461-1.571-.8c.217-.428.447-.856.685-1.274l1.531.87C301.752,1136.9,301.535,1137.3,301.331,1137.7Zm51.82-.016c-.2-.4-.421-.8-.644-1.2l1.531-.871c.237.416.467.844.683,1.269Zm-50.474-2.353-1.489-.942c.256-.405.526-.81.8-1.2l1.443,1.01C303.173,1134.569,302.919,1134.951,302.677,1135.333Zm49.13-.009c-.241-.381-.495-.762-.754-1.132l1.443-1.01c.275.392.544.8.8,1.2Zm-47.568-2.224-1.394-1.076c.293-.379.6-.757.909-1.123l1.343,1.141C304.8,1132.387,304.516,1132.743,304.239,1133.1Zm46.008,0c-.276-.357-.565-.713-.857-1.057l1.343-1.141c.31.365.615.742.908,1.121ZM306,1131.024l-1.288-1.2c.327-.351.667-.7,1.009-1.033l1.231,1.261C306.631,1130.366,306.311,1130.694,306,1131.024Zm42.483,0c-.309-.331-.629-.658-.952-.974l1.231-1.26c.342.334.682.681,1.009,1.032Zm-40.535-1.9-1.171-1.316c.358-.318.729-.633,1.1-.934l1.108,1.37C308.637,1128.526,308.288,1128.822,307.95,1129.122Zm38.587,0c-.338-.3-.687-.6-1.039-.881l1.108-1.37c.373.3.744.616,1.1.934Zm-36.471-1.709-1.044-1.42c.386-.283.784-.562,1.183-.827l.975,1.467C310.8,1126.881,310.429,1127.143,310.066,1127.411Zm34.353,0c-.364-.268-.74-.53-1.117-.781l.975-1.467c.4.266.8.544,1.185.828Zm-32.089-1.5-.906-1.511c.41-.245.832-.485,1.253-.712l.835,1.552C313.114,1125.447,312.717,1125.673,312.33,1125.9Zm29.82-.006c-.389-.232-.787-.459-1.186-.673l.834-1.552c.422.227.845.468,1.257.714Zm-27.427-1.28-.76-1.589c.432-.207.874-.406,1.314-.592l.685,1.623C315.548,1124.235,315.131,1124.423,314.723,1124.618Zm25.025-.009c-.408-.2-.827-.383-1.244-.559l.684-1.623c.442.186.886.385,1.319.592Zm-22.523-1.047-.608-1.654c.45-.165.91-.322,1.367-.466l.529,1.681C318.082,1123.258,317.649,1123.406,317.225,1123.562Zm20.01-.011c-.425-.156-.86-.3-1.292-.439l.527-1.681c.459.144.92.3,1.371.466Zm-17.414-.806-.449-1.7c.464-.122.937-.235,1.4-.335l.368,1.723C320.7,1122.523,320.258,1122.63,319.821,1122.745Zm14.813-.009c-.435-.115-.881-.22-1.324-.314l.366-1.724c.47.1.943.212,1.406.334Zm-12.152-.56-.287-1.738c.472-.078.953-.146,1.43-.2l.2,1.75C323.381,1122.039,322.927,1122.1,322.482,1122.176Zm9.491-.006c-.446-.073-.9-.136-1.349-.188l.2-1.75c.476.055.957.122,1.43.2Zm-6.788-.311-.123-1.757c.477-.033.962-.056,1.442-.067l.042,1.761C326.093,1121.807,325.635,1121.828,325.185,1121.859Zm4.084,0c-.45-.031-.908-.052-1.361-.062l.04-1.761c.48.011.965.033,1.442.065Z" fill="#ffb719"></path>
      </g>
      <g id="Group_307" data-name="Group 307">
        <path id="Path_188" data-name="Path 188" d="M317.479,1131.273l-6.648,4.919,5.49-.3,7.262-1.19Z" fill="#ffb719"></path>
      </g>
      <g id="Group_308" data-name="Group 308">
        <path id="Path_189" data-name="Path 189" d="M323.583,1134.706l-7.262,1.19,8.556-.462Z" fill="#e0a525"></path>
      </g>
      <g id="Group_309" data-name="Group 309">
        <path id="Path_190" data-name="Path 190" d="M305.836,1150.5l1.5,8.66.73-4.654Z" fill="#e0a525"></path>
      </g>
      <g id="Group_310" data-name="Group 310">
        <path id="Path_191" data-name="Path 191" d="M305.835,1150.5v0l2.227,4.005-.73,4.654h0l2.692-6.91,7.631-8.421Z" fill="#ffb719"></path>
      </g>
      <g id="Group_311" data-name="Group 311">
        <path id="Path_192" data-name="Path 192" d="M323.036,1138.979l-13.435-.39,1.331,2.535-3.86,2.956-1.161,2.6Z" fill="#ffb719"></path>
      </g>
      <g id="Group_312" data-name="Group 312">
        <path id="Path_193" data-name="Path 193" d="M309.6,1138.589l-.078,0-2.45,5.493,3.86-2.956Z" fill="#e0a525"></path>
      </g>
      <g id="Group_313" data-name="Group 313">
        <path id="Path_194" data-name="Path 194" d="M326.31,1141.9l-9.354,6.723-5.937,5.556,5.5-3.022-7.585,9.958,3.683-1.091.474,6.361,2.407-10.036Z" fill="#ffb719"></path>
      </g>
      <g id="Group_314" data-name="Group 314">
        <path id="Path_195" data-name="Path 195" d="M308.931,1161.111l-.134.175,4.254,5.245.036-.151-.474-6.361Z" fill="#ac8400"></path>
      </g>
      <g id="Group_315" data-name="Group 315">
        <path id="Path_196" data-name="Path 196" d="M319.4,1154.9l-3.879,13.815,4.579-3.334Z" fill="#ffb719"></path>
      </g>
      <g id="Group_316" data-name="Group 316">
        <path id="Path_197" data-name="Path 197" d="M323.683,1172.407l-3.576-6.963,0-.066-4.579,3.334-.012.042Z" fill="#ac8400"></path>
      </g>
      <g id="Group_317" data-name="Group 317">
        <path id="Path_198" data-name="Path 198" d="M326.773,1147.151l-4.409,5.164,1,12.152,3.655,9.2,2.671-8.388-4.51-12.3Z" fill="#ffb719"></path>
      </g>
      <g id="Group_318" data-name="Group 318">
        <path id="Path_199" data-name="Path 199" d="M326.477,1156.616l.125-8.895-1.775,5.449Z" fill="#ac8400"></path>
      </g>
      <g id="Group_319" data-name="Group 319">
        <path id="Path_200" data-name="Path 200" d="M324.848,1153.171l2.071,10.9.1,9.606,3.135-9.584Z" fill="#e0a525"></path>
      </g>
      <g id="Group_320" data-name="Group 320">
        <path id="Path_201" data-name="Path 201" d="M356.713,1159.034c-.086-.083-.043-.121.049-.143Z" fill="#ffb719"></path>
      </g>
      <g id="Group_321" data-name="Group 321">
        <path id="Path_202" data-name="Path 202" d="M356.65,1159.255l.038-.078C356.7,1159.218,356.683,1159.239,356.65,1159.255Z" fill="#ffb719"></path>
      </g>
      <g id="Group_322" data-name="Group 322">
        <path id="Path_203" data-name="Path 203" d="M303.069,1145.288l-.043.185-1.584-.371.044-.185Z" fill="#ffb719"></path>
        <path id="Path_204" data-name="Path 204" d="M303.221,1144.64l-1.558-.467.056-.187,1.635-.7-1.307-.392.055-.183,1.558.468-.056.187-1.635.7,1.306.392Z" fill="#ffb719"></path>
        <path id="Path_205" data-name="Path 205" d="M302.764,1141.386l1.366.533-.069.177-1.366-.533-.252.645-.149-.058.573-1.467.149.058Z" fill="#ffb719"></path>
        <path id="Path_206" data-name="Path 206" d="M303.852,1140.291l.442-.924.144.07-.442.924.514.245.46-.962.146.071-.543,1.135-1.467-.7.544-1.136.144.069-.46.962Z" fill="#ffb719"></path>
        <path id="Path_207" data-name="Path 207" d="M304.736,1137.335a.492.492,0,0,1,.638.382.679.679,0,0,1-.1.421l0,0-.021.036.852-.244.01.006-.121.209-.867.248-.19.328.544.314-.1.167-1.409-.813.418-.725A.747.747,0,0,1,304.736,1137.335Zm.468.42a.36.36,0,0,0-.42-.253.527.527,0,0,0-.251.244l-.321.558.587.339.336-.582A.478.478,0,0,0,305.2,1137.755Z" fill="#ffb719"></path>
        <path id="Path_208" data-name="Path 208" d="M306.4,1137.491l-1.335-.929.111-.16,1.773-.16-1.12-.779.109-.156,1.335.929-.111.16-1.773.16,1.12.779Z" fill="#ffb719"></path>
        <path id="Path_209" data-name="Path 209" d="M308.144,1134.483l-.645.772.19.44-.136.163-.726-1.694.125-.149,1.794.414-.135.162Zm-1.083-.251.367.858.541-.647Z" fill="#ffb719"></path>
        <path id="Path_210" data-name="Path 210" d="M308.364,1132.718l1.054,1.019-.133.137-1.054-1.019-.481.5-.115-.112,1.1-1.132.115.112Z" fill="#ffb719"></path>
        <path id="Path_211" data-name="Path 211" d="M310.39,1132.793l-.139.13-1.106-1.194.14-.129Z" fill="#ffb719"></path>
        <path id="Path_212" data-name="Path 212" d="M310.288,1131.765a.857.857,0,1,1,1.2.112A.82.82,0,0,1,310.288,1131.765Zm1.178-.964a.665.665,0,1,0-.083.95A.644.644,0,0,0,311.466,1130.8Z" fill="#ffb719"></path>
        <path id="Path_213" data-name="Path 213" d="M312.589,1130.979l-.915-1.344.162-.11,1.712.484-.768-1.127.158-.107.915,1.344-.161.11-1.713-.484.768,1.127Z" fill="#ffb719"></path>
        <path id="Path_214" data-name="Path 214" d="M315.29,1128.789l-.877.493.021.479-.184.1-.078-1.84.171-.1,1.529,1.024-.184.1Zm-.923-.619.039.933.735-.414Z" fill="#ffb719"></path>
        <path id="Path_215" data-name="Path 215" d="M316.4,1128.526l.965-.449.068.146-1.14.529-.685-1.475.175-.081Z" fill="#ffb719"></path>
        <path id="Path_216" data-name="Path 216" d="M318.972,1127.63l-.181.06-.513-1.545.757-.251a.687.687,0,0,1,.481-.008.557.557,0,0,1,.242.757.691.691,0,0,1-.389.273l-.572.19Zm.463-1.59a.478.478,0,0,0-.349.008l-.576.191.237.714.573-.19a.5.5,0,0,0,.282-.2A.427.427,0,0,0,319.435,1126.04Z" fill="#ffb719"></path>
        <path id="Path_217" data-name="Path 217" d="M321.576,1125.334a.492.492,0,0,1,.165.725.685.685,0,0,1-.375.218v0l-.04.01.764.448,0,.011-.235.057-.778-.456-.368.09.149.609-.188.046-.385-1.58.812-.2A.742.742,0,0,1,321.576,1125.334Zm.019.629a.358.358,0,0,0-.107-.478.517.517,0,0,0-.35-.013l-.625.152.161.659.652-.159A.473.473,0,0,0,321.6,1125.963Z" fill="#ffb719"></path>
        <path id="Path_218" data-name="Path 218" d="M322.66,1125.738l1.011-.165.025.159-1.011.165.092.561,1.053-.171.026.16-1.243.2-.262-1.6,1.243-.2.026.158-1.053.172Z" fill="#ffb719"></path>
        <path id="Path_219" data-name="Path 219" d="M324.269,1125.568a.822.822,0,0,1,.784-.914.76.76,0,0,1,.786.391l-.161.051a.6.6,0,0,0-.612-.28.686.686,0,0,0,.115,1.366.621.621,0,0,0,.553-.382l.17.023a.773.773,0,0,1-.709.523A.827.827,0,0,1,324.269,1125.568Z" fill="#ffb719"></path>
        <path id="Path_220" data-name="Path 220" d="M326.655,1126.238l-.191,0-.04-1.625.191,0Z" fill="#ffb719"></path>
        <path id="Path_221" data-name="Path 221" d="M327.259,1125.4a.857.857,0,1,1,.826.876A.82.82,0,0,1,327.259,1125.4Zm1.521.056a.665.665,0,1,0-.689.658A.644.644,0,0,0,328.78,1125.454Z" fill="#ffb719"></path>
        <path id="Path_222" data-name="Path 222" d="M329.8,1125.488a.645.645,0,1,0,1.267.161l.1-.749.191.025-.1.749a.834.834,0,1,1-1.65-.211l.1-.749.191.025Z" fill="#ffb719"></path>
        <path id="Path_223" data-name="Path 223" d="M333.018,1125.423a1.018,1.018,0,0,0-.255-.084.957.957,0,0,0-.264-.021c-.149.005-.322.046-.354.217-.044.248.252.295.531.38.326.094.807.189.664.664-.07.235-.34.3-.582.3a1.541,1.541,0,0,1-.664-.175.521.521,0,0,1-.327-.53l.186.033a.366.366,0,0,0,.2.341,1.225,1.225,0,0,0,.634.164c.177,0,.322-.058.362-.178.119-.35-.331-.4-.525-.459-.289-.084-.762-.167-.673-.578.048-.225.27-.324.529-.337a1.366,1.366,0,0,1,.31.027,1.21,1.21,0,0,1,.3.1c.243.115.414.3.369.541l-.187-.036C333.306,1125.607,333.186,1125.5,333.018,1125.423Z" fill="#ffb719"></path>
        <path id="Path_224" data-name="Path 224" d="M334.719,1127.383l.551-1.53.19.068.384,1.15,1.028-.642.191.068-.551,1.531-.181-.066.458-1.274-.962.595-.107-.039-.363-1.071-.458,1.274Z" fill="#ffb719"></path>
        <path id="Path_225" data-name="Path 225" d="M337.658,1127.561l.93.431-.068.145-.929-.43-.239.516.967.448-.068.148-1.143-.529.683-1.476,1.143.529-.067.145-.968-.448Z" fill="#ffb719"></path>
        <path id="Path_226" data-name="Path 226" d="M340.124,1128.162l-.715,1.28-.166-.093.715-1.28-.6-.338.078-.139,1.375.768-.078.14Z" fill="#ffb719"></path>
        <path id="Path_227" data-name="Path 227" d="M341.5,1130.238l-.841-.552-.415.238-.177-.116,1.6-.914.163.107-.207,1.829-.177-.116Zm.125-1.1-.81.462.705.464Z" fill="#ffb719"></path>
        <path id="Path_228" data-name="Path 228" d="M342.249,1131.108l.84.652-.1.127-.993-.771,1-1.284.153.118Z" fill="#ffb719"></path>
        <path id="Path_229" data-name="Path 229" d="M345.025,1131.732a1.051,1.051,0,0,0-.179-.2.941.941,0,0,0-.218-.15c-.132-.069-.3-.12-.416.012-.161.192.072.381.271.594.236.244.606.567.244.907-.177.168-.443.088-.651-.035a1.53,1.53,0,0,1-.488-.483.518.518,0,0,1-.019-.622l.144.121a.371.371,0,0,0,.007.4,1.226,1.226,0,0,0,.468.458c.155.085.308.11.4.026.277-.243-.088-.512-.227-.659-.208-.217-.577-.526-.3-.838a.5.5,0,0,1,.627-.027,1.312,1.312,0,0,1,.256.178,1.23,1.23,0,0,1,.208.233.523.523,0,0,1,.051.654l-.144-.125C345.183,1132.035,345.131,1131.885,345.025,1131.732Z" fill="#ffb719"></path>
        <path id="Path_230" data-name="Path 230" d="M346.462,1135.2a.709.709,0,0,1-.38-.252l-.567-.655,1.231-1.064.547.633a.6.6,0,0,1,.165.365.393.393,0,0,1-.529.376l0,0C347.118,1134.882,346.779,1135.254,346.462,1135.2Zm-.236-1.269-.465.4.443.512a.492.492,0,0,0,.276.185.322.322,0,0,0,.328-.3.482.482,0,0,0-.14-.29Zm.558.4a.4.4,0,0,0,.211.134.286.286,0,0,0,.291-.251.387.387,0,0,0-.113-.247l-.423-.491-.4.348Z" fill="#ffb719"></path>
        <path id="Path_231" data-name="Path 231" d="M347.629,1135.467a.645.645,0,1,0,.749,1.035l.612-.442.113.156-.612.443a.835.835,0,1,1-.975-1.349l.612-.442.113.156Z" fill="#ffb719"></path>
        <path id="Path_232" data-name="Path 232" d="M348.375,1137.8l.54.917-.138.082-.638-1.083,1.4-.826.1.166Z" fill="#ffb719"></path>
        <path id="Path_233" data-name="Path 233" d="M349.241,1139.3l.488.945-.143.074-.576-1.117,1.444-.746.089.171Z" fill="#ffb719"></path>
        <path id="Path_234" data-name="Path 234" d="M349.858,1140.93l-.078-.173,1.481-.671.079.174Z" fill="#ffb719"></path>
        <path id="Path_235" data-name="Path 235" d="M350.867,1141.159a.857.857,0,1,1-.486,1.1A.82.82,0,0,1,350.867,1141.159Zm.541,1.422a.665.665,0,1,0-.875-.378A.644.644,0,0,0,351.408,1142.581Z" fill="#ffb719"></path>
        <path id="Path_236" data-name="Path 236" d="M350.883,1143.59l1.565-.441.053.188-1,1.47,1.313-.37.051.184-1.565.441-.053-.188,1-1.47-1.313.37Z" fill="#ffb719"></path>
      </g>
    </g>
    <g id="Group_326" data-name="Group 326">
      <g id="Group_325" data-name="Group 325">
        <g id="Group_324" data-name="Group 324">
          <path id="Path_237" data-name="Path 237" d="M373.2,1164.484h-7.331v-27.3H373.2Z" fill="#070707"></path>
          <path id="Path_238" data-name="Path 238" d="M383.77,1164.484h-7.293v-27.3h13.61c6.551,0,11.309,3.041,11.309,9.632,0,6.785-5.265,9.866-11.387,9.866H383.77Zm0-21.175v7.409h6.278a3.832,3.832,0,0,0,4.056-3.821c0-1.833-1.326-3.588-4.017-3.588Z" fill="#070707"></path>
          <path id="Path_239" data-name="Path 239" d="M404.436,1164.484v-27.3h6.63l9.2,12.166c3.041-3.938,6.278-8.267,9.281-12.166h6.512v27.3h-7.331v-15.209c-2.145,2.847-4.407,5.85-6.512,8.541h-3.978l-6.473-8.463v15.131Z" fill="#070707"></path>
          <path id="Path_240" data-name="Path 240" d="M466.439,1156.3c.039,4.562-3.627,8.189-10.724,8.189h-14.78v-27.3h14.78c6.629,0,9.476,3.977,9.4,7.643a5.735,5.735,0,0,1-3.237,5.108A6.622,6.622,0,0,1,466.439,1156.3Zm-11.036-9.048c3.237,0,2.886-3.977-.234-3.977h-6.863v3.977Zm-7.1,6.123v4.991h7.214c4.718,0,4.68-4.991,0-4.991Z" fill="#070707"></path>
        </g>
        <path id="Path_241" data-name="Path 241" d="M427.19,1137.218h-13.84l6.936,9.023Z" fill="#ffb719"></path>
      </g>
    </g>
  </g>
</svg>
